HIERARCHY
ROOT Hips
{
	OFFSET 0.00000 0.00000 0.00000
	CHANNELS 6 Xposition Yposition Zposition Yrotation Zrotation Xrotation 
	JOINT Lumbar
	{
		OFFSET 0 0 0
		CHANNELS 3 Zrotation Xrotation Yrotation
		JOINT Neck
		{
			OFFSET 0.00 0.2701 0.00
			CHANNELS 3 Zrotation Xrotation Yrotation
			End Site
			{
				OFFSET 0.00 0.1379 0.00
			}
		}
		JOINT RightShoulder
		{
			OFFSET 0.0119 0.2289 0.1181
			CHANNELS 3 Zrotation Xrotation Yrotation
			JOINT RightElbow
			{
				OFFSET 0.00 -0.1475 0.00
				CHANNELS 2 Zrotation Yrotation
				JOINT RightWrist
				{
					OFFSET 0.00 -0.1605 0.00
					CHANNELS 2 Zrotation Xrotation
					End Site
					{
						OFFSET 0.0040 -0.1068 0.0006
					}
				}
			}
		}
		JOINT LeftShoulder
		{
			OFFSET 0.0119 0.2289 -0.1181
			CHANNELS 3 Zrotation Xrotation Yrotation
			JOINT LeftElbow
			{
				OFFSET 0.00 -0.1475 0.00
				CHANNELS 2 Zrotation Yrotation
				JOINT LeftWrist
				{
					OFFSET 0.00 -0.1605 0.00
					CHANNELS 2 Zrotation Xrotation
					End Site
					{
						OFFSET 0.0040 -0.1068 -0.0006
					}
				}
			}
		}
	}
	JOINT RightHip
	{
		OFFSET 0.0316 -0.0424 0.0458
		CHANNELS 3 Zrotation Xrotation Yrotation
		JOINT RightKnee
		{
			OFFSET 0.00 -0.2438 0.00
			CHANNELS 1 Zrotation
			JOINT RightAnkle
			{
				OFFSET 0.00 -0.2449 0.00
				CHANNELS 3 Zrotation Xrotation Yrotation
				End Site
				{
					OFFSET 0.1237 -0.0542 0.0051
				}
			}
		}
	}
	JOINT LeftHip
	{
		OFFSET 0.0316 -0.0424 -0.0458
		CHANNELS 3 Zrotation Xrotation Yrotation
		JOINT LeftKnee
		{
			OFFSET 0.00 -0.2438 0.00
			CHANNELS 1 Zrotation
			JOINT LeftAnkle
			{
				OFFSET 0.00 -0.2449 0.00
				CHANNELS 3 Zrotation Xrotation Yrotation
				End Site
				{
					OFFSET 0.1237 -0.0542 -0.0051
				}
			}
		}
	}
}
MOTION
Frames: 32
Frame Time: 0.02
0.7846 0.56973 0.12313 892.06556 0 -1.17325 -3.45609 5.44338 19.5626 -7.98939 -10.21552 8.20984 41.75077 -8.94253 -24.44469 7.8528 79.35458 -5.11593 -3.72439 -20.55661 25.28454 77.98091 5.78742 -81.79506 -16.41539 3.00906 -13.52599 10.43607 4.04371 -21.66813 5.75473 -5.41998 -10.24195 17.83741 -9.50439 -6.54082 -18.80252 7.37184 5.17374 8.01734
0.77029 0.56701 0.11807 892.03491 0 -0.60109 -2.91637 4.7365 19.58172 -8.59202 -9.99049 8.29821 42.42072 -8.73627 -23.64066 7.81603 79.28864 -5.12704 -3.72757 -20.45987 24.98692 80.33246 5.78669 -81.61391 -17.27916 3.21389 -12.15144 9.62742 3.43515 -26.37572 4.72544 -4.54515 -7.7699 17.61209 -10.06819 -5.90208 -19.48614 7.20484 4.89154 7.22909
0.75545 0.5639 0.11295 891.91685 0 -0.02298 -2.24568 3.94696 19.54088 -9.26892 -9.45776 8.37062 43.13806 -8.69761 -22.62231 7.7774 79.26536 -5.18911 -3.75999 -20.07724 24.35927 81.75273 5.78698 -81.04217 -18.14353 3.35597 -10.16158 8.61654 2.56483 -32.14252 3.41436 -3.40668 -4.52262 17.59153 -10.56745 -5.13517 -22.11631 7.00906 4.57753 6.71418
0.7409 0.56106 0.10786 891.82007 0 0.52837 -1.64477 3.22189 19.52173 -9.9036 -9.06548 8.45312 43.83332 -8.57444 -21.6747 7.74195 79.21777 -5.22546 -3.77488 -19.77276 23.86179 83.57097 5.78693 -80.71353 -18.96978 3.52503 -8.4184 7.71606 1.85185 -37.39437 2.26517 -2.42171 -1.7176 17.44167 -11.07488 -4.46525 -23.78376 6.86574 4.3226 6.12177
0.72607 0.55781 0.10273 891.79517 0 1.18175 -0.99627 2.38184 19.52067 -10.57786 -8.668 8.52973 44.53507 -8.48756 -20.83803 7.69544 79.18844 -5.27081 -3.8063 -19.6868 23.44477 85.53252 5.78687 -80.12064 -19.95853 3.70094 -6.80343 6.73571 0.97888 -42.8293 0.97499 -1.29256 1.48035 17.43012 -11.67348 -3.63692 -25.77665 6.55662 3.88351 5.31682
0.71174 0.55533 0.09768 891.60553 0 1.62261 -0.41756 1.76296 19.46607 -11.186 -8.20754 8.61148 45.23288 -8.36509 -19.72278 7.67117 79.13228 -5.31044 -3.81031 -19.07406 22.78248 86.93667 5.78709 -79.96742 -20.60283 3.84525 -4.78391 5.8765 0.37511 -48.09578 -0.08796 -0.40345 4.02998 17.18315 -12.06407 -3.10661 -27.55323 6.5805 3.81363 5.02039
0.69887 0.55496 0.09289 890.94055 0 1.49112 -0.06219 1.76485 19.32441 -11.59148 -7.67058 8.72322 45.90862 -8.096 -17.85649 7.71921 78.9901 -5.31904 -3.73764 -17.1219 21.53192 87.31413 5.78653 -81.28984 -20.36195 3.9476 -1.74551 5.37398 0.59461 -52.91434 -0.4697 -0.22111 4.71378 16.25692 -11.92228 -3.42461 -28.28781 7.59732 4.83557 6.12285
0.68653 0.55539 0.08818 890.12136 0 1.14334 0.21744 1.99357 19.12429 -11.92756 -7.07804 8.83749 46.57794 -7.78641 -15.72356 7.7882 78.81986 -5.32093 -3.63587 -14.64119 20.04632 87.10417 5.7874 -83.04033 -19.76513 4.01627 1.66622 5.00454 1.09251 -57.46963 -0.61113 -0.29257 4.69946 15.08588 -11.5691 -4.04722 -28.73399 8.93897 6.21856 7.71894
0.67397 0.55552 0.08343 889.39991 0 0.88348 0.53039 2.12591 18.92127 -12.29622 -6.49625 8.94244 47.24955 -7.49994 -13.73478 7.84093 78.66406 -5.32785 -3.5432 -12.37401 18.66166 86.98028 5.78705 -84.48286 -19.28503 4.07947 4.87442 4.593 1.45049 -61.96641 -0.85244 -0.26224 4.92601 14.01469 -11.29491 -4.53352 -29.2908 10.08882 7.39393 9.05185
0.66128 0.55536 0.07871 888.55674 0 0.66506 0.85316 2.22942 18.83789 -12.66352 -5.96217 9.08255 47.92619 -7.19953 -11.641 7.92148 78.50343 -5.3279 -3.46745 -10.21129 17.28438 87.60447 5.78488 -86.37925 -18.98427 4.22306 8.2553 4.10013 1.84962 -67.26667 -1.14092 -0.16847 5.49072 12.99562 -11.08838 -5.00665 -29.9961 11.42288 8.7512 10.55865
0.64901 0.55599 0.07394 887.93397 0 0.31209 1.13509 2.44494 18.4954 -13.01573 -5.32298 9.1488 48.58937 -6.91627 -9.70606 7.94974 78.34456 -5.34034 -3.35102 -7.70681 15.84752 86.52218 5.79218 -87.45127 -18.23899 4.19839 11.34691 3.80672 2.24047 -70.79934 -1.27295 -0.26684 5.18957 11.81088 -10.69428 -5.58099 -30.30528 12.45228 9.81671 11.81611
0.63776 0.55873 0.06905 887.93815 0 -0.38754 1.32869 2.94094 17.42566 -13.34812 -4.38053 9.02259 49.22456 -6.68981 -8.27354 7.82282 78.20784 -5.38528 -3.11336 -4.40891 14.24284 81.06597 5.7801 -86.02531 -16.23786 3.66261 13.63252 4.06963 2.47307 -69.66716 -1.00914 -0.86697 2.54114 10.1971 -9.81031 -6.36234 -29.52278 12.54907 9.98079 12.27106
0.6269 0.56222 0.0641 888.17364 0 -1.2101 1.48258 3.53753 16.10282 -13.66746 -3.34158 8.81995 49.84536 -6.481 -7.01358 7.64354 78.07242 -5.44301 -2.83855 -0.78257 12.59927 73.89061 5.78645 -83.78117 -13.82394 2.96885 15.59537 4.52347 2.70096 -66.73715 -0.59937 -1.64684 -0.9341 8.43012 -8.74925 -7.23504 -28.35524 12.33098 9.84083 12.45529
0.61588 0.56531 0.05917 888.31624 0 -1.95774 1.64943 4.07067 14.91273 -13.98786 -2.36481 8.64419 50.46676 -6.26388 -5.67395 7.49211 77.92846 -5.49722 -2.59121 2.70538 11.01509 67.3672 5.81332 -81.98719 -11.67386 2.38405 17.64757 4.86476 2.97721 -64.51824 -0.26937 -2.3239 -3.95217 6.75271 -7.78555 -8.06553 -27.39823 12.2643 9.84447 12.75796
0.60484 0.56868 0.05426 888.40129 0 -2.7925 1.83301 4.68548 13.64388 -14.32217 -1.3052 8.50088 51.11059 -6.04769 -4.32137 7.32472 77.81416 -5.54274 -2.29848 6.16497 9.24658 61.32922 5.7161 -79.86728 -9.18656 1.64251 19.95489 5.31567 3.07044 -62.71493 0.12713 -3.09872 -7.34053 4.98197 -6.74463 -8.91054 -26.27968 12.17159 9.83571 13.09819
0.5939 0.57162 0.04929 888.66377 0 -3.47325 1.976 5.15249 12.48202 -14.63071 -0.40015 8.27278 51.70744 -5.83298 -3.05127 7.17733 77.64244 -5.608 -2.09149 9.75607 7.85563 53.92921 5.88441 -78.23883 -7.31191 1.18861 21.64966 5.58659 3.53694 -59.65138 0.41475 -3.70947 -10.14163 3.37331 -5.82339 -9.74173 -25.41298 12.0569 9.77849 13.28846
0.58323 0.5733 0.04417 889.3561 0 -3.68901 1.99303 5.17459 11.65836 -14.82474 0.0895 7.82079 52.15067 -5.62933 -1.87378 7.10265 77.28009 -5.73751 -2.13381 13.6093 7.52127 42.76623 6.75996 -78.05837 -7.20494 1.58265 21.72414 5.27388 5.05882 -53.29827 0.38388 -3.82148 -11.14665 2.24695 -5.29295 -10.52129 -25.31215 11.92947 9.63471 13.13569
0.57262 0.5745 0.03897 890.22081 0 -3.74663 1.97507 5.04604 10.95497 -15.00195 0.41368 7.28761 52.55156 -5.42481 -0.79188 7.04907 76.86578 -5.88423 -2.26342 17.58038 7.56886 30.37343 7.90714 -78.41769 -7.73803 2.26858 21.19226 4.78075 6.94828 -45.78775 0.2353 -3.76153 -11.52466 1.29347 -4.88694 -11.27978 -25.48783 11.79224 9.45391 12.83761
0.56192 0.57585 0.03378 891.00924 0 -3.88137 1.98934 4.9928 10.20941 -15.21826 0.79 6.79724 52.99074 -5.21326 0.27123 6.98247 76.49648 -6.01444 -2.35071 21.51387 7.43955 18.82436 8.94275 -78.60115 -7.99281 2.81174 20.94184 4.39508 8.6558 -38.97062 0.12591 -3.77976 -12.16654 0.26036 -4.41389 -12.04167 -25.54858 11.67991 9.30859 12.60076
0.55148 0.57752 0.0287 891.79548 0 -3.99677 1.93439 4.91264 9.40235 -15.30287 1.26599 6.27958 53.3519 -5.03297 1.5905 6.92795 76.03769 -6.18109 -2.44704 25.40956 7.32171 6.01402 9.92465 -78.46871 -8.16855 3.3938 20.65778 3.90652 10.43631 -31.37963 0.07634 -3.80301 -12.92192 -0.78509 -3.97886 -12.83648 -25.5337 11.4801 9.08238 12.37637
0.54052 0.5784 0.02337 892.62604 0 -4.11526 2.01436 4.85353 8.75513 -15.65595 1.49518 5.80005 53.86206 -4.78802 2.35667 6.85472 75.75191 -6.27663 -2.54681 29.38528 7.27251 -4.4409 11.08798 -79.12603 -8.68056 3.96408 20.30112 3.58959 12.13943 -25.15438 -0.12042 -3.7742 -13.28711 -1.74755 -3.49649 -13.55211 -25.76803 11.45216 9.00941 12.0934
0.52806 0.57716 0.0173 893.52069 0 -4.26171 2.48786 4.86951 8.52275 -16.77145 1.07135 5.45047 54.82461 -4.35849 1.61119 6.71849 75.96566 -6.16398 -2.62506 33.7402 7.30911 -8.05887 12.63185 -81.89051 -9.83296 4.44986 19.91575 3.76521 13.64768 -22.94572 -0.75884 -3.62865 -12.67074 -2.64247 -2.85578 -14.08947 -26.44243 12.00726 9.46095 11.70106
0.51508 0.57516 0.01099 894.45599 0 -4.41874 3.09582 4.91431 8.44806 -18.15397 0.40694 5.14209 55.93235 -3.866 0.31503 6.56414 76.35359 -5.98038 -2.70521 38.13367 7.4037 -9.25901 14.35271 -85.4202 -11.31932 4.91109 19.47453 4.12238 15.04552 -22.16578 -1.53046 -3.43844 -11.68921 -3.43612 -2.16453 -14.53999 -27.39128 12.71848 10.05401 11.25504
0.50235 0.57356 0.00481 895.38188 0 -4.5841 3.63477 4.95941 8.30022 -19.404 -0.14034 4.81142 56.95439 -3.4051 -0.72355 6.42239 76.65586 -5.83442 -2.79166 42.38675 7.47879 -11.58107 16.03574 -88.57061 -12.7527 5.37138 19.04631 4.41371 16.42194 -20.768 -2.19948 -3.2777 -10.90917 -4.19787 -1.49419 -15.00768 -28.33796 13.2889 10.521 10.82118
0.48956 0.57169 -0.00146 896.27507 0 -4.69243 4.20749 4.94585 8.16165 -20.70314 -0.72756 4.49074 58.06062 -2.92752 -1.79795 6.26286 76.98393 -5.66698 -2.85305 47.1682 7.53848 -13.85846 17.57391 -91.88942 -13.82826 5.89203 18.65281 4.63339 18.11143 -19.20345 -3.04878 -3.07266 -9.9604 -5.28527 -0.83263 -15.57211 -28.78683 14.14931 11.23996 10.42511
0.47677 0.57021 -0.0076 897.24448 0 -4.91926 4.74019 5.0594 8.04098 -21.96028 -1.28493 4.16286 59.02349 -2.47486 -2.92539 6.13585 77.30013 -5.52634 -2.96323 50.85007 7.63874 -15.62727 19.4203 -95.01096 -15.67348 6.27831 18.17688 5.04161 19.12036 -18.3314 -3.55436 -2.95111 -9.28108 -5.66934 -0.14438 -15.91056 -30.32137 14.44845 11.47734 9.95032
0.464 0.56997 -0.01343 898.40485 0 -5.51267 5.14714 5.5506 7.92092 -23.06405 -1.7147 3.7828 59.58059 -2.06265 -4.07911 6.10294 77.5425 -5.48459 -3.23104 51.53695 7.83854 -16.6544 22.34992 -97.58169 -19.9664 6.28869 17.53236 5.97972 18.25444 -19.11438 -3.06317 -3.07518 -9.46532 -4.16531 0.65024 -15.67967 -34.88985 13.11422 10.27215 9.17751
0.45125 0.57015 -0.01909 899.63981 0 -6.21783 5.50583 6.16315 7.81538 -24.11064 -2.10275 3.39918 59.98353 -1.68585 -5.26333 6.10346 77.7668 -5.47101 -3.54338 51.10332 8.07548 -17.22321 25.53271 -99.89115 -24.94821 6.16433 16.80219 7.09237 16.71079 -20.53514 -2.22353 -3.28496 -9.93069 -1.95375 1.46231 -15.21717 -40.5159 11.21944 8.592 8.34403
0.43854 0.57016 -0.02476 900.84806 0 -6.8452 5.87548 6.69883 7.70851 -25.16588 -2.5001 3.03149 60.44087 -1.32155 -6.42435 6.08849 77.99873 -5.43924 -3.81917 51.15187 8.29162 -17.96186 28.41523 -102.19866 -29.34074 6.10849 16.0836 8.09054 15.48915 -21.60771 -1.55293 -3.45358 -10.2507 -0.04601 2.23728 -14.84021 -45.59504 9.60968 7.18105 7.60254
0.42561 0.57005 -0.03073 902.03414 0 -7.5872 6.29701 7.3273 7.5824 -26.30591 -2.94673 2.60255 60.97065 -0.83442 -7.64674 6.07358 78.23951 -5.42679 -4.16268 51.32611 8.52423 -18.82145 32.07834 -105.04226 -34.89306 6.02499 15.47496 9.24259 14.20071 -22.97014 -0.84263 -3.62963 -10.6321 1.79631 3.13652 -14.54774 -50.98413 7.87291 5.55073 6.59349
0.41316 0.5703 -0.03602 903.27524 0 -8.11643 6.59616 7.79075 7.50096 -27.24939 -3.27765 2.30258 61.30944 -0.61229 -8.738 6.06747 78.45487 -5.3829 -4.37725 50.95931 8.73351 -19.29878 34.18304 -106.69778 -38.21194 5.96264 14.62172 10.11423 12.89691 -23.86877 -0.12964 -3.81146 -10.95695 3.93437 3.78115 -14.02004 -55.94966 6.27135 4.26151 6.12005
0.40198 0.57152 -0.03949 904.72076 0 -8.03501 6.578 7.77103 7.51057 -27.68789 -3.29819 2.33515 61.17166 -1.11343 -9.4862 6.07092 78.60727 -5.2354 -4.21123 49.47893 8.84353 -19.29688 31.83926 -105.13291 -34.99642 6.03448 13.08096 10.15978 11.6731 -23.26593 0.4987 -3.98641 -11.06224 6.77527 3.71134 -12.94822 -59.69834 5.12874 4.04 7.21066
